<?xml version="1.0" standalone="no"?>
<!DOCTYPE svg PUBLIC "-//W3C//DTD SVG 20010904//EN"
 "http://www.w3.org/TR/2001/REC-SVG-20010904/DTD/svg10.dtd">
<svg version="1.0" xmlns="http://www.w3.org/2000/svg"
 width="512.000000pt" height="512.000000pt" viewBox="0 0 512.000000 512.000000"
 preserveAspectRatio="xMidYMid meet">

<g transform="translate(0.000000,512.000000) scale(0.100000,-0.100000)"
fill="#000000" stroke="none">
<path d="M2789 3828 c-69 -39 -100 -140 -65 -206 8 -15 211 -223 450 -462
l436 -435 -1274 -5 c-1268 -5 -1275 -5 -1302 -26 -72 -53 -91 -128 -52 -204
17 -33 35 -51 68 -68 l44 -22 1261 0 1260 0 -441 -442 c-243 -244 -447 -453
-453 -465 -6 -12 -11 -42 -11 -66 0 -109 124 -189 221 -143 19 9 294 276 621
604 634 635 620 618 604 709 -7 34 -71 102 -599 631 -326 326 -604 600 -619
608 -39 20 -107 17 -149 -8z"/>
</g>
</svg>
