<svg width="410" height="528" viewBox="0 0 410 528" fill="none" xmlns="http://www.w3.org/2000/svg">
<g opacity="0.9">
<path d="M98.0046 59.4663L67.4049 59.3989L64.3005 61.3921C63.299 62.0899 62.0007 61.2871 62.0034 60.0871L62.0511 38.3871C62.0559 36.1871 63.8599 34.3911 66.0599 34.3959L98.1596 34.4665C100.36 34.4714 102.156 36.2753 102.151 38.4753L102.114 55.3753C102.009 57.675 100.205 59.4711 98.0046 59.4663Z" fill="white"/>
<path d="M81.6378 44.4302L92.3377 44.4537" stroke="#22272E" stroke-width="1.8" stroke-miterlimit="10" stroke-linecap="round" stroke-linejoin="round"/>
<path d="M81.6257 49.9302L88.1256 49.9445" stroke="#22272E" stroke-width="1.8" stroke-miterlimit="10" stroke-linecap="round" stroke-linejoin="round"/>
<path d="M76.1379 44.4181L70.6379 44.406L70.6258 49.906L76.1258 49.9181L76.1379 44.4181Z" fill="white" stroke="#22272E" stroke-width="1.8" stroke-miterlimit="10" stroke-linecap="round" stroke-linejoin="round"/>
<path d="M289.805 57.1063L245.407 56.2087C243.607 56.2047 242.11 54.8014 242.014 53.0012L238.121 4.0925C238.025 2.39229 239.428 1.09538 241.028 1.1989L285.617 5.99699C287.317 6.20073 288.614 7.50358 288.71 9.2038L292.511 54.1123C292.607 55.8125 291.405 57.1098 289.805 57.1063Z" fill="black"/>
<path d="M292.206 56.3116L247.808 55.414C246.008 55.41 244.512 54.0067 244.416 52.2065L240.523 3.2978C240.427 1.59758 241.83 0.30067 243.429 0.404189L288.019 5.20228C289.718 5.40602 291.015 6.70887 291.112 8.40909L294.913 53.3176C295.009 55.0178 293.706 56.3149 292.206 56.3116Z" fill="black"/>
<path d="M259.909 9.54044L283.404 11.7921" stroke="white" stroke-width="2.8" stroke-miterlimit="10" stroke-linecap="round" stroke-linejoin="round"/>
<path d="M260.299 14.3413L283.794 16.393" stroke="white" stroke-width="2.8" stroke-miterlimit="10" stroke-linecap="round" stroke-linejoin="round"/>
<path d="M261.174 25.3432L284.771 26.9951" stroke="white" stroke-width="2.8" stroke-miterlimit="10" stroke-linecap="round" stroke-linejoin="round"/>
<path d="M261.564 30.0441L285.061 31.4958" stroke="white" stroke-width="2.8" stroke-miterlimit="10" stroke-linecap="round" stroke-linejoin="round"/>
<path d="M262.54 41.1463L286.037 42.198" stroke="white" stroke-width="2.8" stroke-miterlimit="10" stroke-linecap="round" stroke-linejoin="round"/>
<path d="M262.929 45.8472L286.427 46.6989" stroke="white" stroke-width="2.8" stroke-miterlimit="10" stroke-linecap="round" stroke-linejoin="round"/>
<path d="M251.803 12.2226L253 13.7253L254.705 11.429" stroke="#FBFFFE" stroke-width="1.8" stroke-miterlimit="10" stroke-linecap="round" stroke-linejoin="round"/>
<path d="M253.068 28.2254L254.265 29.6281L256.07 27.332" stroke="#FBFFFE" stroke-width="1.8" stroke-miterlimit="10" stroke-linecap="round" stroke-linejoin="round"/>
<path d="M254.334 43.9283L255.631 45.3311L257.336 42.9349" stroke="#FBFFFE" stroke-width="1.8" stroke-miterlimit="10" stroke-linecap="round" stroke-linejoin="round"/>
<path d="M109.943 147.366L109.944 147.366L109.955 147.342L109.966 147.318L109.967 147.316C109.968 147.315 109.97 147.311 109.975 147.306C109.985 147.295 110.01 147.27 110.062 147.237C110.172 147.166 110.374 147.075 110.71 147.002C111.392 146.852 112.387 146.824 113.665 146.947C116.203 147.193 119.478 147.998 122.748 149.104C126.011 150.208 129.179 151.581 131.501 152.917C132.669 153.589 133.566 154.219 134.15 154.764C134.692 155.269 134.765 155.514 134.773 155.512C134.773 155.512 134.773 155.512 134.773 155.512C134.763 156.363 134.481 157.628 133.972 159.179C133.466 160.72 132.78 162.413 132.067 164.041C131.355 165.665 130.627 167.201 130.039 168.428C129.967 168.579 129.896 168.727 129.826 168.872C129.36 169.845 128.966 170.667 128.827 171.053C128.751 171.264 128.733 171.455 128.726 171.531C128.717 171.634 128.715 171.737 128.715 171.827C128.715 172.009 128.725 172.224 128.741 172.455C128.772 172.921 128.833 173.541 128.916 174.283C129.083 175.77 129.349 177.811 129.679 180.218C130.34 185.036 131.268 191.368 132.209 197.774C132.279 198.244 132.348 198.715 132.417 199.185C133.291 205.129 134.161 211.049 134.829 215.812C135.19 218.383 135.49 220.61 135.7 222.319C135.915 224.074 136.02 225.176 136.019 225.574C136.019 225.67 135.978 225.886 135.722 226.243C135.466 226.599 135.059 227.006 134.494 227.45C133.362 228.337 131.798 229.212 130.159 229.997C128.534 230.775 126.9 231.432 125.667 231.897C125.347 232.018 125.055 232.125 124.798 232.217C118.073 220.024 112.634 206.095 108.907 194.127C106.989 187.968 105.531 182.347 104.585 177.771C103.63 173.146 103.228 169.724 103.344 167.893C103.587 164.038 105.198 158.95 106.815 154.716C107.615 152.623 108.399 150.781 108.983 149.462C109.275 148.804 109.517 148.277 109.684 147.916C109.768 147.735 109.834 147.596 109.878 147.503L109.928 147.399L109.94 147.373L109.943 147.367L109.943 147.366L109.943 147.366Z" fill="white" stroke="black" stroke-width="3"/>
<path d="M135.313 91.9719C135.313 91.9719 125.306 95.3499 117.668 112.533C109.93 129.816 101.899 144.099 101.899 144.099C101.899 144.099 114.371 156.526 130.357 162.861C146.343 169.396 147.11 93.5979 135.313 91.9719Z" fill="#85AFEE"/>
<path d="M104.71 139.005C104.71 139.005 121.779 153.042 137.665 159.177" stroke="#22272E" stroke-width="1.8" stroke-miterlimit="10" stroke-linecap="round" stroke-linejoin="round"/>
<path d="M142.025 490.952L142.011 490.788L141.949 490.062C141.896 489.435 141.819 488.536 141.726 487.447C141.54 485.268 141.29 482.33 141.034 479.292C140.522 473.212 139.987 466.744 139.891 465.152L139.891 465.152C139.891 465.144 139.887 465.084 140.011 464.962C140.14 464.836 140.362 464.689 140.697 464.535C141.364 464.227 142.361 463.942 143.609 463.695C146.096 463.204 149.466 462.885 152.911 462.799C156.356 462.713 159.848 462.862 162.579 463.294C163.946 463.511 165.1 463.795 165.956 464.146C166.763 464.477 167.208 464.828 167.387 465.148L167.382 465.259L167.353 465.929C167.327 466.507 167.291 467.335 167.248 468.335C167.162 470.336 167.05 473.024 166.944 475.774C166.838 478.525 166.738 481.339 166.677 483.592C166.616 485.82 166.591 487.549 166.644 488.09C166.654 488.204 166.618 488.389 166.455 488.651C166.293 488.91 166.032 489.208 165.662 489.528C164.923 490.169 163.809 490.854 162.395 491.475C159.57 492.715 155.617 493.665 151.247 493.508C146.889 493.35 144.547 492.628 143.314 491.984C142.699 491.664 142.363 491.364 142.186 491.166C142.1 491.069 142.051 490.995 142.025 490.952Z" fill="#FBFFFE" stroke="black"/>
<path d="M167.366 477.143C167.579 471.144 167.892 465.045 167.892 465.045C166.102 460.741 139.199 461.981 139.392 465.182C139.489 466.682 139.977 472.283 140.364 477.884C148.256 481.801 158.658 480.824 167.366 477.143Z" fill="#22272E"/>
<path d="M167.143 487.443C167.143 487.443 167.93 493.345 168.216 499.745C168.502 506.246 169.476 517.848 168.372 519.846C167.168 521.843 161.164 523.53 146.862 524.598C132.559 525.667 119.362 524.638 117.066 522.833C114.769 521.028 115.475 518.329 117.68 516.234C119.885 514.139 128.605 504.858 132.213 501.066C136.924 496.076 140.335 490.984 140.337 490.384C140.642 487.985 141.142 487.986 141.142 487.986C141.142 487.986 141.739 489.487 142.539 489.389C143.339 489.291 144.449 484.793 149.247 485.904C154.144 487.014 156.037 490.318 157.837 490.322C159.637 490.226 164.538 489.637 167.143 487.443Z" fill="#22272E"/>
<path d="M205.909 469.509L205.899 469.431C206.088 469.157 206.515 468.841 207.26 468.522C208.079 468.171 209.175 467.861 210.47 467.593C213.056 467.059 216.355 466.712 219.618 466.532C222.879 466.353 226.085 466.342 228.481 466.474C229.682 466.54 230.664 466.642 231.343 466.772C231.686 466.838 231.926 466.906 232.072 466.969C232.084 466.974 232.095 466.979 232.105 466.984C232.149 467.552 232.208 469.259 232.267 471.592C232.332 474.139 232.396 477.39 232.446 480.608C232.495 483.826 232.528 487.007 232.531 489.415C232.532 490.619 232.526 491.627 232.509 492.347C232.501 492.708 232.491 492.992 232.478 493.19C232.474 493.268 232.469 493.328 232.464 493.373C232.441 493.397 232.406 493.432 232.355 493.477C232.25 493.569 232.097 493.687 231.891 493.822C231.477 494.092 230.862 494.422 230.008 494.753C228.301 495.414 225.653 496.075 221.798 496.264C217.98 496.451 214.86 495.661 212.642 494.673C211.532 494.179 210.654 493.638 210.03 493.15C209.717 492.906 209.474 492.68 209.299 492.484C209.118 492.282 209.031 492.136 209 492.055C208.985 492.019 208.953 491.898 208.905 491.663C208.86 491.441 208.807 491.148 208.748 490.793C208.628 490.084 208.485 489.137 208.326 488.034C208.007 485.829 207.63 483.009 207.267 480.228C206.905 477.447 206.558 474.706 206.301 472.661C206.173 471.638 206.068 470.789 205.994 470.196L205.909 469.509Z" fill="#F5F5F5" stroke="black"/>
<path d="M232.864 477.887C232.776 472.387 232.587 467.287 232.489 466.587C232.192 464.986 207.191 465.431 205.283 469.227C205.283 469.227 205.873 474.028 206.561 479.23C215.556 481.349 224.558 480.769 232.864 477.887Z" fill="#22272E"/>
<path d="M208.137 490.333C207.933 491.933 207.83 493.432 207.926 495.033C208.024 496.333 208.12 498.133 208.115 500.333C208.205 504.933 208.57 520.834 209.665 523.137C210.759 525.439 223.355 527.367 232.855 527.488C242.355 527.608 249.36 525.124 250.466 522.526C251.571 519.929 250.98 516.127 247.689 511.92C244.398 507.713 236.813 501.196 235.92 498.094C235.026 494.992 233.634 491.389 233.036 490.388C233.036 490.388 231.733 492.185 230.332 492.582C229.031 492.979 227.143 487.575 223.043 487.366C218.944 487.057 217.14 488.753 214.532 492.547C214.432 492.547 210.831 492.839 208.137 490.333Z" fill="#22272E"/>
<path d="M121.057 208.341C121.057 208.341 118.633 219.236 117.401 233.933C116.169 248.63 120.168 339.739 120.753 346.84C121.337 353.942 123.548 394.447 126.105 414.152C128.169 430.357 126.597 463.054 131.487 467.664C136.377 472.275 151.371 474.808 160.676 472.329C169.982 469.849 174.292 465.259 175.4 461.461C176.509 457.663 172.172 428.754 172.505 414.055C172.837 399.355 172.632 355.955 172.155 345.654C172.155 345.654 176.371 293.063 181.297 281.074C186.223 269.084 193.421 224.9 179.849 212.07C166.077 199.24 122.262 206.243 121.057 208.341Z" fill="#22272E"/>
<path d="M142.944 214.189C142.944 214.189 142.801 233.989 143.568 248.79C143.856 254.391 144.345 259.292 145.039 262.194C147.516 272.599 152.914 273.411 157.009 275.82C161.103 278.329 175.674 337.161 181.64 352.474C181.64 352.474 186.163 387.684 189.716 408.692C193.17 429.7 192.614 455.099 195.295 463.805C197.976 472.511 213.772 474.245 221.474 473.562C229.175 472.879 239.481 469.902 239.201 460.901C238.921 451.901 237.477 426.297 236.225 404.495C234.873 382.692 232.545 350.186 231.962 342.585C231.962 342.585 229.041 306.579 227.481 288.075C225.922 269.572 226.864 250.674 224.534 218.768C222.004 186.763 142.883 196.389 142.944 214.189Z" fill="#22272E"/>
<path d="M143.568 248.79C143.856 254.391 144.345 259.292 145.039 262.194C147.516 272.599 152.914 273.411 157.009 275.82C161.103 278.329 175.674 337.161 181.64 352.474" stroke="#63737A" stroke-width="1.8" stroke-miterlimit="10" stroke-linecap="round" stroke-linejoin="round"/>
<path d="M157.009 275.82C157.009 275.82 145.322 269.794 140.117 271.983" stroke="#63737A" stroke-width="1.8" stroke-miterlimit="10" stroke-linecap="round" stroke-linejoin="round"/>
<path d="M138.92 361.48C146.21 361.497 152.135 355.018 152.152 347.01C152.17 339.001 146.274 332.497 138.984 332.481C131.694 332.465 125.77 338.943 125.752 346.951C125.735 354.96 131.63 361.464 138.92 361.48Z" stroke="#63737A" stroke-width="1.8" stroke-miterlimit="10" stroke-linecap="round" stroke-linejoin="round"/>
<path d="M207.922 360.732C215.433 360.749 221.536 354.27 221.554 346.262C221.571 338.254 215.497 331.749 207.986 331.732C200.475 331.716 194.371 338.194 194.354 346.202C194.336 354.21 200.411 360.716 207.922 360.732Z" stroke="#63737A" stroke-width="1.8" stroke-miterlimit="10" stroke-linecap="round" stroke-linejoin="round"/>
<path d="M144.461 479.393C144.461 479.393 144.166 477.292 144.468 476.393" stroke="#63737A" stroke-width="1.8" stroke-miterlimit="10" stroke-linecap="round" stroke-linejoin="round"/>
<path d="M152.758 480.711C152.758 480.711 152.767 476.811 152.767 476.411" stroke="#63737A" stroke-width="1.8" stroke-miterlimit="10" stroke-linecap="round" stroke-linejoin="round"/>
<path d="M162.862 478.733C162.862 478.733 162.968 476.234 162.87 475.133" stroke="#63737A" stroke-width="1.8" stroke-miterlimit="10" stroke-linecap="round" stroke-linejoin="round"/>
<path d="M210.859 480.139C210.859 480.139 210.365 477.438 210.367 476.638" stroke="#63737A" stroke-width="1.8" stroke-miterlimit="10" stroke-linecap="round" stroke-linejoin="round"/>
<path d="M220.858 480.561C220.858 480.561 221.066 477.161 220.868 476.261" stroke="#63737A" stroke-width="1.8" stroke-miterlimit="10" stroke-linecap="round" stroke-linejoin="round"/>
<path d="M229.462 478.98C229.462 478.98 229.667 476.68 229.469 475.58" stroke="#63737A" stroke-width="1.8" stroke-miterlimit="10" stroke-linecap="round" stroke-linejoin="round"/>
<path d="M135.017 499.572C135.017 499.572 142.63 493.489 157.511 501.922" stroke="white" stroke-width="1.8" stroke-miterlimit="10" stroke-linecap="round" stroke-linejoin="round"/>
<path d="M129.3 507.26C129.3 507.26 138.716 499.78 152.696 508.911" stroke="white" stroke-width="1.8" stroke-miterlimit="10" stroke-linecap="round" stroke-linejoin="round"/>
<path d="M238.206 504.199C238.206 504.199 229.115 500.179 216.801 506.652" stroke="white" stroke-width="1.8" stroke-miterlimit="10" stroke-linecap="round" stroke-linejoin="round"/>
<path d="M242.291 511.008C242.291 511.008 231.801 506.385 219.083 514.657" stroke="white" stroke-width="1.8" stroke-miterlimit="10" stroke-linecap="round" stroke-linejoin="round"/>
<path d="M183.72 88.5784C183.72 88.5784 188.717 90.0894 199.317 90.3127C209.916 90.536 222.009 93.6626 226.696 99.573C231.383 105.483 232.787 148.986 232.044 168.685C231.301 188.283 217.136 217.652 217.136 217.652C217.136 217.652 183.428 221.378 155.831 220.017C128.235 218.557 121.648 212.542 119.752 210.638C117.856 208.734 116.767 204.131 117.871 202.134C118.975 200.236 124.409 184.648 126.442 169.753C128.375 154.757 124.321 134.048 126.261 115.752C128.201 97.4563 135.313 92.0719 135.313 92.0719C135.313 92.0719 144.22 89.0915 159.62 88.6254C174.922 87.959 183.72 88.5784 183.72 88.5784Z" fill="#85AFEE"/>
<path d="M160.429 84.7271C157.729 84.8212 155.625 86.4166 153.721 88.3124C152.519 89.5097 151.415 91.1073 150.91 93.2062C147.07 111.598 152.821 133.811 160.222 133.627C169.522 133.347 182.059 116.475 191.901 97.2964C195.919 89.4052 188.231 83.8883 183.731 83.8784C180.231 83.7707 166.03 84.4395 160.429 84.7271Z" fill="#85AFEE"/>
<path d="M203.214 45.9212C203.214 45.9212 203.197 54.0211 198.479 62.0108C193.761 70.0004 188.052 74.1879 186.144 77.7837C184.236 81.3795 184.757 71.9806 186.167 67.4837C187.577 63.0868 195.93 39.0051 203.214 45.9212Z" fill="#22272E"/>
<path d="M158.845 76.28L158.848 76.2519L158.848 76.2237C158.85 75.3765 159.236 74.358 159.988 73.2188C160.734 72.0877 161.81 70.8836 163.118 69.6762C165.733 67.262 169.224 64.879 172.707 63.0856C176.203 61.2851 179.623 60.113 182.106 60.0543C183.345 60.0249 184.275 60.2749 184.877 60.7795C185.46 61.2678 185.825 62.0711 185.776 63.365L185.776 63.3658C185.456 72.1918 186.034 83.0141 186.324 87.4181L186.324 87.4197C186.415 88.7229 186.133 90.028 185.474 91.2452L185.474 91.2452L185.472 91.2502C183.283 95.4074 177.402 103.748 166.616 103.142L166.613 103.141C163.577 102.988 161.448 102.281 159.962 101.289C158.481 100.301 157.605 99.0073 157.109 97.6136C156.104 94.7922 156.654 91.5703 157.009 89.7126C157.367 87.8454 157.826 84.4808 158.195 81.597C158.379 80.1521 158.542 78.823 158.658 77.8552C158.716 77.3713 158.763 76.9776 158.795 76.7049L158.832 76.3903L158.841 76.3081L158.844 76.2871L158.844 76.2818L158.844 76.2805L158.844 76.2801C158.845 76.28 158.845 76.28 158.348 76.2226L158.845 76.28Z" fill="#F5F5F5" stroke="black"/>
<path d="M146.627 40.1967C146.627 40.1967 143.919 44.0908 144.312 47.0916C144.705 50.0925 150.383 60.205 153.284 59.9114C156.184 59.6178 159.212 47.2244 155.821 43.1169C152.33 39.0092 147.731 38.2991 146.627 40.1967Z" fill="#22272E"/>
<path d="M149.414 45.8814L149.413 45.8636L149.411 45.8459C148.982 42.0229 149.756 38.8072 151.371 36.199C152.988 33.5863 155.467 31.554 158.488 30.1375C164.538 27.3001 172.706 26.9626 180.2 29.3473C183.909 30.5274 186.458 32.412 188.15 34.8027C189.846 37.1995 190.709 40.1439 190.971 43.4845C191.499 50.187 189.607 58.3521 187.386 66.5568C185.202 74.6252 180.679 79.7182 175.273 82.3999C169.857 85.0872 163.511 85.3743 157.665 83.7393C154.772 82.9302 152.685 81.6023 151.19 79.9614C149.693 78.3183 148.767 76.3373 148.238 74.1919C147.174 69.884 147.717 64.9737 148.375 60.9808C149.038 56.955 149.298 53.183 149.392 50.4187C149.439 49.036 149.445 47.904 149.438 47.1166C149.435 46.7229 149.429 46.4153 149.424 46.2056C149.421 46.1007 149.419 46.0203 149.417 45.9658L149.415 45.9036L149.414 45.8874L149.414 45.8832L149.414 45.882L149.414 45.8816C149.414 45.8815 149.414 45.8814 148.915 45.9017L149.414 45.8814Z" fill="#FBFFFE" stroke="black"/>
<path d="M153.997 53.9129C154.294 55.0136 154.192 56.3133 153.789 57.5125C153.588 58.112 153.287 58.6114 152.885 59.1105C152.685 59.41 152.484 59.6096 152.284 59.8092C152.184 59.9089 152.083 60.1087 151.983 60.2085C151.882 60.5083 151.882 60.8083 151.981 61.1085C152.08 61.5087 152.379 61.9094 152.678 62.31C153.277 63.1114 154.175 63.8133 155.074 64.4153C153.874 64.5127 152.674 64.11 151.676 63.3078C151.177 62.9067 150.678 62.4056 150.38 61.705C150.081 61.0043 149.983 60.1041 150.385 59.405C150.586 59.0054 150.786 58.7059 151.087 58.5065C151.287 58.307 151.487 58.2074 151.588 58.0076C151.889 57.6083 152.29 57.2092 152.491 56.8096C153.092 55.9109 153.594 55.012 153.997 53.9129Z" fill="#22272E"/>
<path d="M187.286 58.5862C187.286 58.5862 185.792 56.2829 185.102 51.6814C184.512 47.0801 179.611 47.3693 177.33 38.8642C175.049 30.3592 169.426 40.8469 160.517 44.6273C151.609 48.4077 144.622 42.2923 141.037 35.4844C137.552 28.7767 143.566 22.6899 147.672 19.899C151.778 17.108 156.068 21.6174 164.072 19.635C172.077 17.6526 184.982 15.181 191.162 24.1946C197.342 33.2082 203.737 35.4223 203.316 45.2214C202.794 55.0203 191.37 65.8952 190.67 65.9937C189.87 66.1919 187.286 58.5862 187.286 58.5862Z" fill="#22272E"/>
<path d="M166.207 49.1398C165.909 48.3391 165.612 46.8385 166.714 46.0409C167.816 45.2433 170.315 45.5488 172.712 47.0541C174.809 48.3587 175.404 50.46 174.005 50.257C172.605 50.0539 171.507 49.4514 169.807 49.3477C168.007 49.2437 166.506 49.8405 166.207 49.1398Z" fill="#22272E"/>
<path d="M154.21 48.0134C154.411 47.3138 154.614 46.0143 153.916 45.1127C153.318 44.3114 151.718 44.4079 150.215 45.5046C148.913 46.5017 148.509 48.4008 149.409 48.3028C150.309 48.2048 150.91 47.8061 152.01 47.9086C153.11 48.011 154.009 48.6129 154.21 48.0134Z" fill="#22272E"/>
<path d="M147.27 65.9982C147.27 65.9982 147.168 67.198 148.867 67.5017C150.567 67.7054 150.772 65.2059 153.673 64.8123C155.473 64.6162 161.772 65.1301 164.367 67.5358C166.962 69.9415 170.555 72.7494 175.759 71.1609C180.962 69.5723 184.078 62.2791 185.102 51.6814C186.023 41.9834 189.602 51.3913 189.597 53.6913C189.594 55.2913 188.099 52.988 186.285 59.484C185.478 62.3822 186.26 70.584 183.147 76.5771C180.737 81.1718 174.027 85.8571 165.525 86.4384C157.024 87.0197 150.032 83.5043 147.944 77.8997C145.856 72.4951 146.669 66.3969 147.27 65.9982Z" fill="#22272E"/>
<path d="M151.393 55.5072C152.193 55.609 152.894 55.0105 152.996 54.2107L153.098 53.411C153.2 52.6112 152.601 51.9099 151.802 51.8081C151.002 51.7063 150.3 52.3048 150.199 53.1046L150.097 53.9044C149.995 54.7041 150.594 55.4054 151.393 55.5072Z" fill="#22272E"/>
<path d="M167.291 56.5422C168.091 56.6439 168.792 56.0455 168.894 55.2457L168.996 54.4459C169.097 53.6462 168.499 52.9448 167.699 52.8431C166.899 52.7413 166.198 53.3398 166.096 54.1395L165.995 54.9393C165.893 55.8391 166.491 56.5404 167.291 56.5422Z" fill="#22272E"/>
<mask id="path-54-inside-1_4_505" fill="white">
<path d="M186.185 59.4838C186.185 59.4838 188.898 53.4897 193.596 54.2001C198.394 55.0106 195.967 67.6053 187.267 67.4862"/>
</mask>
<path d="M186.185 59.4838C186.185 59.4838 188.898 53.4897 193.596 54.2001C198.394 55.0106 195.967 67.6053 187.267 67.4862" fill="#FBFFFE"/>
<path d="M193.596 54.2001L193.763 53.214L193.754 53.2126L193.746 53.2113L193.596 54.2001ZM186.185 59.4838C187.096 59.8961 187.095 59.8964 187.095 59.8967C187.095 59.8968 187.095 59.897 187.095 59.8971C187.095 59.8973 187.095 59.8975 187.095 59.8975C187.095 59.8977 187.095 59.8974 187.095 59.8968C187.096 59.8956 187.097 59.8931 187.099 59.8891C187.102 59.8813 187.109 59.8681 187.117 59.8499C187.135 59.8134 187.163 59.7572 187.2 59.684C187.275 59.5376 187.389 59.3248 187.541 59.0697C187.847 58.5565 188.295 57.8866 188.873 57.2436C190.052 55.9303 191.593 54.9086 193.447 55.1888L193.746 53.2113C190.901 52.7812 188.736 54.4014 187.384 55.9075C186.696 56.6743 186.173 57.4584 185.823 58.047C185.647 58.3426 185.512 58.5926 185.421 58.7712C185.375 58.8606 185.339 58.9324 185.315 58.9834C185.303 59.0089 185.293 59.0293 185.286 59.0441C185.283 59.0515 185.28 59.0575 185.278 59.0621C185.277 59.0644 185.276 59.0663 185.275 59.0678C185.275 59.0686 185.274 59.0693 185.274 59.0699C185.274 59.0702 185.274 59.0706 185.274 59.0707C185.274 59.0711 185.274 59.0714 186.185 59.4838ZM193.43 55.1861C194.1 55.2993 194.628 55.8128 194.883 56.8688C195.139 57.9358 195.048 59.3861 194.546 60.8713C193.539 63.8481 191.055 66.538 187.281 66.4863L187.253 68.4861C192.179 68.5535 195.258 65.0056 196.44 61.5123C197.033 59.7623 197.193 57.9195 196.827 56.4007C196.459 54.871 195.492 53.5061 193.763 53.214L193.43 55.1861Z" fill="black" mask="url(#path-54-inside-1_4_505)"/>
<path d="M193.286 58.6994C192.987 58.3987 192.688 58.0981 192.488 57.9976C192.188 57.897 192.288 58.0972 192.087 58.1968C192.087 58.2968 191.885 59.0963 191.784 59.7961C191.682 60.4959 191.481 61.2954 191.079 61.9946C190.878 62.3941 190.677 62.7937 190.277 63.0928C189.876 63.3919 189.376 63.4908 188.976 63.2899C189.377 63.0908 189.477 62.791 189.578 62.4913C189.679 62.1915 189.679 61.8915 189.78 61.5917C189.881 60.8919 189.883 60.1919 190.085 59.3924C190.186 58.9926 190.287 58.5928 190.387 58.193C190.488 57.9932 190.588 57.7935 190.689 57.5937C190.789 57.4939 190.789 57.3939 190.989 57.2943C191.09 57.1946 191.29 57.095 191.39 56.9952C191.59 56.8957 191.89 56.7963 192.29 56.7972C192.69 56.8981 192.89 57.0985 193.089 57.299C193.388 57.7996 193.387 58.2996 193.286 58.6994Z" fill="#22272E"/>
<path d="M158.358 71.6226C158.358 71.6226 161.055 72.8285 163.756 72.3345" stroke="#F4C2C9" stroke-width="1.8" stroke-miterlimit="10" stroke-linecap="round" stroke-linejoin="round"/>
<path d="M153.573 52.6367C154.061 47.6346 151.784 43.3184 148.486 42.9962C145.188 42.674 142.118 46.4679 141.629 51.47C141.141 56.4721 143.418 60.7883 146.716 61.1105C150.014 61.4326 153.084 57.6388 153.573 52.6367Z" stroke="#22272E" stroke-width="1.8" stroke-miterlimit="10" stroke-linecap="round" stroke-linejoin="round"/>
<path d="M175.806 54.6332C176.295 49.6311 173.259 45.2409 169.027 44.8275C164.794 44.414 160.967 48.1339 160.479 53.136C159.99 58.1381 163.025 62.5283 167.258 62.9417C171.49 63.3552 175.317 59.6353 175.806 54.6332Z" stroke="#22272E" stroke-width="1.8" stroke-miterlimit="10" stroke-linecap="round" stroke-linejoin="round"/>
<path d="M153.296 54.1114C153.296 54.1114 155.004 50.9152 160.395 54.7271" stroke="#22272E" stroke-width="1.8" stroke-miterlimit="10" stroke-linecap="round" stroke-linejoin="round"/>
<path d="M175.695 54.6607L186.99 57.0855" stroke="#22272E" stroke-width="1.8" stroke-miterlimit="10" stroke-linecap="round" stroke-linejoin="round"/>
<path d="M211.171 246.866L211.048 247.045C207.046 245.05 204.15 242.102 202.207 239.536C201.151 238.141 200.387 236.874 199.89 235.96C199.751 235.703 199.632 235.475 199.535 235.28C200.501 233.86 201.432 231.934 202.347 229.74C203.455 227.084 204.597 223.895 205.787 220.451C206.231 219.165 206.682 217.843 207.142 216.496C209.156 210.596 211.328 204.231 213.763 198.422C216.751 191.294 219.633 185.86 221.761 182.216C222.825 180.394 223.701 179.02 224.307 178.107C224.61 177.65 224.845 177.308 225.003 177.083C225.082 176.971 225.142 176.887 225.18 176.833L225.223 176.774L225.233 176.762L225.234 176.76L225.234 176.759L225.234 176.759L225.234 176.759L225.778 176.025L225.374 175.204L220.265 164.832C220.42 162.05 221.849 158.97 224.139 155.878C226.506 152.683 229.677 149.63 232.896 147.102C236.12 144.569 239.319 142.62 241.703 141.593C242.862 141.094 243.707 140.866 244.221 140.827C244.523 142.152 245.212 144.035 246.032 146.155C246.4 147.108 246.8 148.12 247.22 149.184C247.887 150.873 248.607 152.694 249.336 154.62C251.712 160.895 254.019 167.839 254.438 173.349C254.564 175.032 254.21 177.264 253.397 179.936C252.591 182.587 251.365 185.571 249.837 188.722C246.779 195.024 242.561 201.892 238.237 207.928C233.865 214.03 226.886 224.075 221.005 232.586C218.064 236.843 215.395 240.719 213.462 243.532C212.495 244.938 211.713 246.078 211.171 246.866Z" fill="white" stroke="black" stroke-width="3"/>
<path d="M202.821 224.721C204.216 227.124 209.002 233.534 220.196 236.159C220.596 236.26 220.695 236.66 220.494 236.96L215.379 243.848C215.278 244.048 214.978 244.047 214.778 244.047C202.287 240.22 199.001 233.912 198.503 232.711C198.404 232.611 198.404 232.411 198.504 232.311L201.921 224.819C202.122 224.319 202.622 224.32 202.821 224.721Z" fill="#22272E"/>
<path d="M209.868 236.875C211.25 234.613 210.614 231.705 208.446 230.38C206.278 229.056 203.401 229.815 202.018 232.077C200.636 234.339 201.272 237.247 203.44 238.572C205.608 239.896 208.486 239.137 209.868 236.875Z" fill="white"/>
<path d="M221.798 98.7622C224.199 98.3675 226.597 99.2727 228.093 101.176C230.386 104.081 234.174 109.689 238.853 119.3C246.717 135.417 252.194 146.029 252.194 146.029C252.194 146.029 224.762 160.769 218.752 165.156C218.752 165.156 207.693 146.431 204.11 138.623C200.627 131.216 201.69 102.418 221.798 98.7622Z" fill="#85AFEE"/>
<path d="M215.365 159.348C215.365 159.348 230.389 148.181 249.107 140.022" stroke="#22272E" stroke-width="1.8" stroke-miterlimit="10" stroke-linecap="round" stroke-linejoin="round"/>
<path d="M193.913 228.501C193.913 228.501 198.574 246.011 217.861 252.154" stroke="#63737A" stroke-width="1.8" stroke-miterlimit="10" stroke-linecap="round" stroke-linejoin="round"/>
<path d="M224.028 175.867C224.028 175.867 226.636 172.473 232.239 171.185L224.028 175.867Z" fill="#D9D9D9"/>
<path d="M224.028 175.867C224.028 175.867 226.636 172.473 232.239 171.185" stroke="black" stroke-miterlimit="10" stroke-linecap="round" stroke-linejoin="round"/>
<path d="M388.177 223.042L299.702 211.948C296.803 211.541 294.809 209.037 295.115 206.138L304.708 118.358C305.115 114.959 307.721 112.265 311.122 111.773L402.749 99.5741C406.15 99.0816 409.144 101.988 408.736 105.487L394.889 217.957C394.482 221.156 391.477 223.45 388.177 223.042Z" fill="#63737A"/>
<path d="M385.178 222.736L296.703 211.541C293.804 211.135 291.809 208.63 292.116 205.731L301.709 117.952C302.116 114.553 304.722 111.859 308.123 111.366L399.75 99.1675C403.151 98.675 406.145 101.582 405.737 105.081L391.889 217.551C391.482 220.75 388.477 223.143 385.178 222.736Z" fill="white"/>
<path d="M382.058 141.129L312.751 144.476C311.55 144.574 310.553 143.471 310.755 142.372L312.489 126.876C312.591 125.976 313.293 125.277 314.193 125.179L384.108 118.433C385.308 118.336 386.406 119.338 386.203 120.638L383.861 139.633C383.859 140.333 383.058 141.031 382.058 141.129Z" fill="black"/>
<path d="M330.481 130.615L376.389 127.016" stroke="white" stroke-width="1.8" stroke-miterlimit="10" stroke-linecap="round" stroke-linejoin="round"/>
<path d="M329.868 136.514L354.572 134.868" stroke="white" stroke-width="1.8" stroke-miterlimit="10" stroke-linecap="round" stroke-linejoin="round"/>
<path d="M322.508 135.473C323.403 133.822 323.027 131.887 321.667 131.15C320.308 130.412 318.48 131.153 317.585 132.804C316.69 134.454 317.067 136.39 318.426 137.127C319.786 137.864 321.613 137.123 322.508 135.473Z" fill="white"/>
<path d="M378.088 172.82L309.591 171.469C308.491 171.467 307.593 170.465 307.696 169.365L309.43 153.969C309.532 152.969 310.333 152.271 311.333 152.273L380.338 150.225C381.538 150.228 382.435 151.23 382.333 152.429L380.091 171.224C379.99 172.024 379.088 172.822 378.088 172.82Z" fill="black"/>
<path d="M327.319 158.808L372.72 158.308" stroke="white" stroke-width="1.8" stroke-miterlimit="10" stroke-linecap="round" stroke-linejoin="round"/>
<path d="M326.606 164.607L351.106 164.661" stroke="white" stroke-width="1.8" stroke-miterlimit="10" stroke-linecap="round" stroke-linejoin="round"/>
<path d="M319.461 163.066C320.282 161.377 319.86 159.479 318.518 158.828C317.177 158.176 315.425 159.017 314.604 160.706C313.784 162.395 314.206 164.292 315.547 164.944C316.888 165.595 318.641 164.755 319.461 163.066Z" fill="white"/>
<path d="M374.219 204.212L306.532 198.263C305.432 198.16 304.635 197.159 304.737 196.159L306.471 180.863C306.573 179.863 307.475 179.065 308.474 179.167L376.668 181.817C377.768 181.819 378.666 182.821 378.563 184.021L376.322 202.616C376.22 203.516 375.219 204.214 374.219 204.212Z" fill="black"/>
<path d="M324.157 186.801L368.952 189.3" stroke="white" stroke-width="1.8" stroke-miterlimit="10" stroke-linecap="round" stroke-linejoin="round"/>
<path d="M323.445 192.5L347.641 194.253" stroke="white" stroke-width="1.8" stroke-miterlimit="10" stroke-linecap="round" stroke-linejoin="round"/>
<path d="M316.566 189.83C317.309 188.105 316.801 186.229 315.432 185.639C314.062 185.048 312.35 185.968 311.607 187.692C310.863 189.417 311.371 191.293 312.74 191.883C314.11 192.474 315.822 191.554 316.566 189.83Z" fill="white"/>
</g>
<path d="M27.511 175.657L27.3222 180.396C27.2624 181.101 27.8428 181.789 28.6118 181.925C29.3164 181.984 29.9159 181.609 30.1811 180.993L31.6024 176.785L27.511 175.657Z" fill="#22272E"/>
<path d="M55.3103 163.325L59.0289 166.337C59.5567 166.807 59.7669 167.677 59.3608 168.281C58.9548 168.885 58.2263 169.107 57.5456 168.766L53.4376 166.998L55.3103 163.325Z" fill="#22272E"/>
<path d="M49.7759 173.358C58.9781 165.595 60.1442 151.841 52.3805 142.639C44.6167 133.436 30.8631 132.27 21.6609 140.034C12.4586 147.798 11.2925 161.552 19.0563 170.754C26.82 179.956 40.5737 181.122 49.7759 173.358Z" fill="black"/>
<path d="M48.7865 161.751C51.5635 154.535 47.9651 146.434 40.7492 143.657C33.5334 140.88 25.4326 144.479 22.6557 151.695C19.8787 158.91 23.4771 167.011 30.693 169.788C37.9088 172.565 46.0095 168.967 48.7865 161.751Z" fill="white"/>
<path d="M41.9234 158.003L35.7184 156.696L32.8096 149.992" stroke="#63737A" stroke-width="1.8" stroke-miterlimit="10" stroke-linecap="round" stroke-linejoin="round"/>
<path d="M11.4882 149.532C11.1586 150.072 10.4301 150.294 9.8259 149.888C7.5737 147.994 6.92658 144.746 8.43378 142.035C9.94097 139.324 13.0197 138.166 15.8547 139.045C16.5473 139.246 16.7694 139.974 16.4278 140.655L11.4882 149.532Z" fill="black"/>
<path d="M46.6558 133.992C47.2839 134.117 47.9599 133.677 48.0196 132.973C48.1296 130.001 46.1545 127.35 43.0902 126.665C40.0259 125.979 37.1287 127.508 35.9797 130.178C35.7146 130.794 36.0776 131.534 36.7058 131.659L46.6558 133.992Z" fill="black"/>
<path d="M28.1959 132.427L22.8075 134.88C21.9262 135.231 20.8872 134.93 20.4717 133.972C20.1206 133.091 20.4216 132.052 21.3794 131.636L26.7677 129.184C27.6491 128.833 28.688 129.134 29.1036 130.091C29.4546 130.973 29.0772 132.076 28.1959 132.427Z" fill="black"/>
<path d="M23.0482 133.545L25.3218 138.663L29.2515 136.917L26.9779 131.8L23.0482 133.545Z" fill="black"/>
<path d="M307.02 264.787C307.02 264.787 300.92 289.087 309.92 305.487C310.62 306.787 312.22 307.287 313.52 306.587L325.72 299.787L320.82 262.987L307.02 264.787Z" fill="#85AFEE"/>
<path d="M309.72 265.287C309.72 265.287 303.92 289.387 317.92 306.987C318.72 307.987 320.22 308.287 321.42 307.587L336.72 298.387L324.12 261.587C324.02 261.687 311.72 262.287 309.72 265.287Z" fill="white"/>
<path d="M307.02 264.787L312.82 265.987L345.52 253.387L339.32 252.387L307.02 264.787Z" fill="#FBFFFE"/>
<path d="M345.52 253.387C345.52 253.387 346.02 269.387 365.22 281.487C366.92 282.587 366.92 284.987 365.22 285.987L334.62 304.087C333.82 304.587 332.82 304.587 332.02 304.187C312.52 293.887 312.82 265.887 312.82 265.887L345.52 253.387Z" fill="#85AFEE"/>
<path d="M337.12 273.587C336.92 273.287 336.62 273.087 336.22 272.787C335.42 272.387 334.62 272.487 333.82 272.787C332.52 273.387 331.92 274.387 332.02 275.887C332.12 276.687 332.42 277.887 333.12 279.387C333.32 278.687 333.72 278.087 334.32 277.487C334.82 276.987 335.62 276.487 336.42 276.087C338.32 275.287 340.12 274.987 341.92 275.387C343.72 275.787 345.22 276.687 346.32 278.187C347.42 279.687 347.82 281.387 347.52 283.287C347.22 285.187 345.82 286.887 343.12 288.287C340.32 289.687 337.42 289.687 334.92 288.287C332.92 287.187 331.32 285.387 330.02 282.887C329.22 281.487 328.72 280.287 328.42 279.287C327.82 277.587 327.72 276.087 327.92 274.887C328.12 273.787 328.52 272.787 329.22 271.987C329.92 271.087 330.92 270.487 332.22 269.887C334.12 269.087 335.82 268.887 337.32 269.187C338.92 269.487 340.12 270.187 341.12 271.487C339.52 272.387 338.72 272.787 337.12 273.587ZM338.22 285.887C339.22 286.187 340.32 286.087 341.32 285.687C342.32 285.187 342.82 284.487 343.02 283.687C343.22 282.887 342.92 281.987 342.32 281.087C341.62 280.087 340.82 279.487 339.92 279.287C339.02 279.087 338.02 279.087 337.22 279.487C336.52 279.787 335.92 280.287 335.62 280.887C335.12 281.787 335.22 282.787 335.92 283.987C336.42 284.887 337.22 285.487 338.22 285.887Z" fill="#FBFFFE"/>
</svg>
